<svg width="80" height="70" xmlns="http://www.w3.org/2000/svg" clip-rule="evenodd" fill-rule="evenodd" image-rendering="optimizeQuality" text-rendering="geometricPrecision" shape-rendering="geometricPrecision">

 <g>
  <title>Layer 1</title>
  <path stroke="null" fill="#8a2be2" id="svg_1" d="m28.98634,7.50036l29.30367,0l0,44.14075c-0.05528,1.032 -1.24607,0.99008 -2.50858,0.94815l-27.22837,0c-1.76303,0 -3.20633,1.55607 -3.20633,3.46044s1.44329,3.46044 3.20633,3.46044l28.40124,0l0,-3.68296l2.50858,0l0,4.67949c0,0.85463 -0.64545,1.54962 -1.43433,1.54962l-29.35148,0c-3.86522,0.7869 -5.77169,-1.53349 -5.77169,-4.96007l0,-43.03457c0,-3.60879 2.73569,-6.56129 6.08096,-6.56129zm-22.96572,47.09325c-3.48572,-5.97595 -4.95591,-12.92424 -4.41057,-19.7145c0.57971,-7.21113 3.42596,-14.24972 8.53725,-19.7661c1.90049,-2.05111 3.99969,-3.7652 6.23037,-5.13906l0,7.17404a24.54946,26.49509 0 0 0 -2.30987,2.19623c-4.15059,4.48115 -6.46196,10.19749 -6.9326,16.04927c-0.41536,5.17776 0.60361,10.46194 3.05692,15.09467l2.92095,-2.87349c0.37203,-0.33379 0.73659,-0.45311 1.0877,-0.35798c0.95921,0.25639 0.94726,1.45287 0.95473,2.2817c0.00448,2.35748 0.56029,9.11711 0.60361,10.32165c0.02689,0.39506 -0.11505,0.78207 -0.38697,1.04974a1.202,1.29726 0 0 1 -1.00553,0.32089c-1.14597,-0.1548 -7.58701,-1.38031 -9.67874,-1.61573c-0.72613,-0.08224 -1.67339,-0.24349 -1.80935,-1.21422c-0.05678,-0.38539 0.08666,-0.76594 0.42881,-1.13682l2.71328,-2.67031zm67.7243,-35.63639c3.25862,5.81147 4.64364,12.49854 4.15657,19.04854c-0.54236,7.28208 -3.39458,14.40291 -8.5522,19.96767a29.48296,31.81959 0 0 1 -5.76422,4.84719l0,-7.28047c0.63499,-0.55954 1.25205,-1.15939 1.84371,-1.79794c4.19093,-4.52147 6.50827,-10.30069 6.94754,-16.20408c0.37352,-5.01006 -0.59465,-10.11364 -2.90751,-14.62382l-2.91348,2.69611c-0.38249,0.32089 -0.75004,0.42893 -1.09816,0.3225c-0.95174,-0.28703 -0.90692,-1.48351 -0.89048,-2.31233c0.06126,-2.35587 -0.30181,-9.13001 -0.31227,-10.33617a1.19856,1.29355 0 0 1 1.42985,-1.32387c1.14298,0.19028 7.54518,1.62863 9.62944,1.9334c0.72314,0.1032 1.66592,0.2967 1.77498,1.27227c0.04632,0.387 -0.10907,0.76272 -0.46168,1.1223l-2.88211,2.6687zm-45.63561,-5.94209l0.86209,0c0.44375,0 0.8083,0.39668 0.8083,0.87075l0,33.04187c0,0.47569 -0.36904,0.87398 -0.8083,0.87398l-0.86209,0c-0.44076,0 -0.8083,-0.39345 -0.8083,-0.87398l0,-33.04187c0,-0.47891 0.36306,-0.87075 0.8083,-0.87075zm0.43628,43.7473l26.0824,0c0.26445,0 0.4796,0.23381 0.4796,0.51923l0,0.31283c0,0.2838 -0.21515,0.51923 -0.4796,0.51923l-26.0824,0c-0.26296,0 -0.4796,-0.23381 -0.4796,-0.51923l0,-0.31283c0,-0.28541 0.21515,-0.51923 0.4796,-0.51923zm0,-2.67354l26.0824,0a0.4811,0.51923 0 0 1 0.4796,0.51761l0,0.31283c0,0.28541 -0.21515,0.51923 -0.4796,0.51923l-26.0824,0c-0.26296,0 -0.4796,-0.23381 -0.4796,-0.51923l0,-0.31283c0,-0.28541 0.21515,-0.51761 0.4796,-0.51761z"/>
 </g>
</svg>