<svg width="90" height="80" xmlns="http://www.w3.org/2000/svg" xml:space="preserve" version="1.1">

 <g>
  <title>Layer 1</title>
  <g fill="#000000" id="svg_1">
   <path fill="#8a2be2" id="svg_2" clip-rule="evenodd" fill-rule="evenodd" d="m67.99019,26.45233l-12.56624,-0.08072l0,-9.7674c0,-1.453 -0.5102,-2.76878 -1.34189,-3.7213c-0.8247,-0.9606 -1.96391,-1.54987 -3.22193,-1.54987l-34.83323,0c-1.25802,0 -2.39723,0.58927 -3.22193,1.54987c-0.8247,0.95252 -1.34189,2.2683 -1.34189,3.7213c0,0.79108 0.55213,1.42878 1.23706,1.42878c0.68492,0 1.23706,-0.63771 1.23706,-1.42878c0,-0.66192 0.23763,-1.26734 0.61503,-1.70324c0.37741,-0.4359 0.90158,-0.71036 1.47468,-0.71036l34.83323,0c0.5731,0 1.09727,0.27446 1.47468,0.71036c0.37741,0.4359 0.61503,1.04132 0.61503,1.70324l0,44.72823l-6.97503,0c-0.68492,0 -1.23706,0.63771 -1.23706,1.42878c0,0.79108 0.55213,1.42878 1.23706,1.42878l8.21209,0c0.68492,0 1.23706,-0.63771 1.23706,-1.42878l0,-1.62252l7.46426,0c0.56611,-14.86905 19.05205,-16.9194 20.93209,0l4.06062,0l-1.25103,-15.51483l-13.32804,-5.89273l-5.31165,-13.27882l0,0zm-64.13816,15.18387c-1.02738,0 -1.85209,-0.64578 -1.85209,-1.43686c0,-0.79108 0.83169,-1.43686 1.85209,-1.43686l16.69675,0c1.02738,0 1.85209,0.64578 1.85209,1.43686c0,0.79108 -0.83169,1.43686 -1.85209,1.43686l-16.69675,0l0,0zm3.82299,-7.7332c-0.76879,0 -1.39081,-0.63771 -1.39081,-1.42878c0,-0.79108 0.62202,-1.42878 1.39081,-1.42878l12.88075,0c0.76879,0 1.39081,0.63771 1.39081,1.42878c0,0.79108 -0.62202,1.42878 -1.39081,1.42878l-12.88075,0l0,0zm1.76822,-7.7332c-0.76879,0 -1.39081,-0.63771 -1.39081,-1.42878c0,-0.79108 0.62202,-1.42878 1.39081,-1.42878l11.10554,0c0.76879,0 1.39081,0.63771 1.39081,1.42878c0,0.79108 -0.62202,1.42878 -1.39081,1.42878l-11.10554,0l0,0zm11.04963,35.15457c0.68492,0 1.23706,0.63771 1.23706,1.42878c0,0.79108 -0.55213,1.42878 -1.23706,1.42878l-4.46598,0c-1.25103,0 -2.39024,-0.62963 -3.22193,-1.62252c-0.8247,-0.99288 -1.34189,-2.34902 -1.34189,-3.78588l0,-10.4939c0,-0.79108 0.55213,-1.42878 1.23706,-1.42878c0.68492,0 1.23706,0.63771 1.23706,1.42878l0,10.4939c0,0.68614 0.24462,1.33999 0.64299,1.81625c0.37741,0.45204 0.8876,0.74265 1.43974,0.74265l4.47297,0l0,-0.00807zm12.58022,-9.3315c-4.62673,0 -8.37982,4.33479 -8.37982,9.67861c0,5.34382 3.7531,9.67861 8.37982,9.67861c4.62673,0 8.37982,-4.33479 8.37982,-9.67861c-0.00699,-5.34382 -3.7531,-9.67861 -8.37982,-9.67861l0,0zm0,5.95731c-1.77521,0 -3.22193,1.66288 -3.22193,3.7213c0,2.05035 1.43974,3.7213 3.22193,3.7213c1.77521,0 3.22193,-1.66288 3.22193,-3.7213c-0.00699,-2.05842 -1.44673,-3.7213 -3.22193,-3.7213l0,0zm40.25671,-5.95731c-4.62673,0 -8.37982,4.33479 -8.37982,9.67861c0,5.34382 3.7531,9.67861 8.37982,9.67861s8.37982,-4.33479 8.37982,-9.67861c0,-5.34382 -3.7531,-9.67861 -8.37982,-9.67861l0,0zm0,5.95731c-1.77521,0 -3.22193,1.66288 -3.22193,3.7213c0,2.05035 1.43974,3.7213 3.22193,3.7213s3.22193,-1.66288 3.22193,-3.7213c0,-2.05842 -1.43974,-3.7213 -3.22193,-3.7213l0,0zm-8.57552,-27.39715l-6.24119,-0.08072l0,9.27499l10.46255,0l-4.22136,-9.19427l0,0z" class="st0"/>
  </g>
 </g>
</svg>