<svg width="80" height="80" xmlns="http://www.w3.org/2000/svg" clip-rule="evenodd" fill-rule="evenodd" image-rendering="optimizeQuality" text-rendering="geometricPrecision" shape-rendering="geometricPrecision">

 <g>
  <title>Layer 1</title>
  <path fill="#8a2be2" stroke="null" id="svg_1" d="m57.9805,39.18528l10.03847,0l0,-1.76666c-0.57398,-1.93255 -1.48799,-3.24265 -2.67183,-4.03949c-1.18384,-0.79542 -2.71862,-1.13571 -4.52012,-1.12437l-41.17084,0.00851c-1.01383,0 -1.83425,-0.74721 -1.83425,-1.66741c0,-0.92161 0.82042,-1.66741 1.83425,-1.66741l41.12249,0.00425c2.58761,-0.02269 4.87106,0.51327 6.74587,1.77658c0.16845,0.11343 0.33378,0.23253 0.49444,0.3573l0,-1.00243c0,-1.55681 -0.70656,-2.98035 -1.84361,-4.01397c-1.12769,-1.03362 -2.69055,-1.67308 -4.4125,-1.67308l-1.32422,0l-0.17001,-0.00709l-0.64729,2.20619l-4.44837,0l2.63908,-8.99917c-2.21795,-0.53879 -3.5406,-2.62305 -2.94634,-4.63925l-14.67869,-3.57443c-0.59426,2.01478 -2.88552,3.21997 -5.10034,2.67976l-4.30956,14.53309l-4.58719,0l6.97983,-23.57622l31.14797,7.58698l-3.07112,10.4539l0.51627,0c2.72174,0 5.20329,1.01944 7.00322,2.65424c1.80306,1.63196 2.92139,3.89203 2.92139,6.36904l0,9.21469c1.05906,0.19141 2.00582,0.66781 2.74046,1.33563c0.9686,0.88049 1.57222,2.09985 1.57222,3.44257l0,10.96717c0,1.39943 -0.63013,2.67267 -1.64084,3.59003c-0.72216,0.65647 -1.6424,1.13713 -2.67183,1.35689l0,6.61575c0,2.47559 -1.11989,4.73424 -2.91983,6.37046l-0.11542,0.09641c-1.7937,1.57808 -4.22845,2.55641 -6.88936,2.55641l-46.33825,0c-2.72486,0 -5.20952,-1.01661 -7.00946,-2.6514c-1.79682,-1.63338 -2.91515,-3.8892 -2.91515,-6.37187l0,-36.52272c0,-2.4841 1.11677,-4.73991 2.91359,-6.37329c1.79682,-1.63338 4.27992,-2.64999 7.01102,-2.64999l5.78975,0l0.02496,0.00142l4.60903,-15.56104l4.3969,1.07049l-6.04086,20.02447l-4.60435,0l0.65197,-2.1991l-4.82739,0c-1.71727,0 -3.28169,0.64087 -4.41718,1.67166c-1.13393,1.03079 -1.83893,2.45432 -1.83893,4.01539l0,36.52272c0,1.56107 0.70656,2.98177 1.84205,4.01255c1.13549,1.03362 2.70147,1.67591 4.41406,1.67591l46.33825,0c1.6736,0 3.2037,-0.60968 4.32671,-1.5951l0.08423,-0.08224c1.13705,-1.0322 1.84517,-2.45574 1.84517,-4.01113l0,-6.48105l-10.03847,0c-3.10076,0 -5.92076,-1.15414 -7.95778,-3.00587l-0.19185,-0.19141c-1.92784,-1.84322 -3.11636,-4.32732 -3.11636,-7.04394l0,-0.43954c0,-2.80595 1.26807,-5.36377 3.3082,-7.22259l0.02028,-0.01843c2.04326,-1.85031 4.8539,-2.99878 7.93751,-2.99878zm-14.92825,-13.19463c2.68119,0.65222 5.44193,-0.794 6.1594,-3.23273c0.71904,-2.43731 -0.87501,-4.94692 -3.5562,-5.59914c-2.68275,-0.65222 -5.44349,0.794 -6.16096,3.23273c-0.71748,2.43731 0.87657,4.9455 3.55776,5.59914zm18.95705,20.83124l0.00936,0.00709c1.70479,1.55398 1.70011,4.08203 -0.00312,5.63459l-0.0078,0.00851c-1.70947,1.54972 -4.49049,1.54547 -6.19996,-0.00284l-0.0078,-0.00709c-1.70479,-1.55398 -1.70011,-4.08203 0.00312,-5.636l0.0078,-0.00709c1.70947,-1.54972 4.49049,-1.54689 6.1984,0.00284z"/>
 </g>
</svg>