<?xml version="1.0" encoding="UTF-8"?>
<svg xmlns="http://www.w3.org/2000/svg" xmlns:xlink="http://www.w3.org/1999/xlink" viewBox="0 0 50 50" width="50px" height="50px">
<g id="surface51998538">
<path style=" stroke:none;fill-rule:nonzero;fill:rgb(100%,100%,100%);fill-opacity:1;" d="M 17.917969 7.8125 C 12.371094 7.8125 7.8125 12.367188 7.8125 17.917969 L 7.8125 32.082031 C 7.8125 37.628906 12.367188 42.1875 17.917969 42.1875 L 32.082031 42.1875 C 37.628906 42.1875 42.1875 37.632812 42.1875 32.082031 L 42.1875 17.917969 C 42.1875 12.371094 37.632812 7.8125 32.082031 7.8125 Z M 17.917969 10.9375 L 32.082031 10.9375 C 35.945312 10.9375 39.0625 14.054688 39.0625 17.917969 L 39.0625 32.082031 C 39.0625 35.945312 35.945312 39.0625 32.082031 39.0625 L 17.917969 39.0625 C 14.054688 39.0625 10.9375 35.945312 10.9375 32.082031 L 10.9375 17.917969 C 10.9375 14.054688 14.054688 10.9375 17.917969 10.9375 Z M 34.226562 14.355469 C 33.441406 14.355469 32.8125 14.984375 32.8125 15.769531 C 32.8125 16.558594 33.441406 17.1875 34.226562 17.1875 C 35.015625 17.1875 35.644531 16.558594 35.644531 15.769531 C 35.644531 14.984375 35.015625 14.355469 34.226562 14.355469 Z M 25 15.625 C 19.84375 15.625 15.625 19.84375 15.625 25 C 15.625 30.15625 19.84375 34.375 25 34.375 C 30.15625 34.375 34.375 30.15625 34.375 25 C 34.375 19.84375 30.15625 15.625 25 15.625 Z M 25 18.75 C 28.472656 18.75 31.25 21.527344 31.25 25 C 31.25 28.472656 28.472656 31.25 25 31.25 C 21.527344 31.25 18.75 28.472656 18.75 25 C 18.75 21.527344 21.527344 18.75 25 18.75 Z M 25 18.75 "/>
</g>
</svg>
