<svg width="49.99999999999999" height="49.99999999999999" xmlns="http://www.w3.org/2000/svg">

 <g>
  <title>Layer 1</title>
  <g id="surface27985734">
   <path id="svg_1" fill="#ffffff" fill-rule="nonzero" d="m14,4c-5.51172,0 -10,4.48828 -10,10l0,22c0,5.51172 4.48828,10 10,10l22,0c5.51172,0 10,-4.48828 10,-10l0,-22c0,-5.51172 -4.48828,-10 -10,-10l-22,0zm0,2l22,0c4.42969,0 8,3.57031 8,8l0,22c0,4.42969 -3.57031,8 -8,8l-22,0c-4.42969,0 -8,-3.57031 -8,-8l0,-22c0,-4.42969 3.57031,-8 8,-8zm-1,9c-1.64453,0 -3,1.35547 -3,3l0,14c0,1.64453 1.35547,3 3,3l24,0c1.64453,0 3,-1.35547 3,-3l0,-14c0,-1.64453 -1.35547,-3 -3,-3l-24,0zm0.41406,2l23.16797,0l-8.90625,8.89453c-1.49219,1.48828 -3.8789,1.48828 -5.37109,-0.0039l-8.89063,-8.89063zm24.58594,1.41016l0,13.17578l-6.59766,-6.58594l6.59766,-6.58984zm-26,0.0039l6.58594,6.58594l-6.58594,6.58594l0,-13.17188zm17.98828,7.9961l6.59766,6.58984l-23.17188,0l6.58594,-6.58594l0.89063,0.89063c2.2539,2.2539 5.9414,2.25781 8.19921,0.0039l0.89844,-0.89843zm0,0"/>
  </g>
 </g>
</svg>